<mxfile host="app.diagrams.net" agent="Mozilla/5.0 (Windows NT 10.0; Win64; x64) AppleWebKit/537.36 (KHTML, like Gecko) Chrome/128.0.0.0 Safari/537.36 OPR/114.0.0.0" version="24.8.4">
  <diagram id="C5RBs43oDa-KdzZeNtuy" name="Page-1">
    <mxGraphModel dx="796" dy="436" grid="1" gridSize="10" guides="1" tooltips="1" connect="1" arrows="1" fold="1" page="1" pageScale="1" pageWidth="827" pageHeight="1169" math="0" shadow="0">
      <root>
        <mxCell id="WIyWlLk6GJQsqaUBKTNV-0" />
        <mxCell id="WIyWlLk6GJQsqaUBKTNV-1" parent="WIyWlLk6GJQsqaUBKTNV-0" />
        <mxCell id="WIyWlLk6GJQsqaUBKTNV-2" value="" style="rounded=0;html=1;jettySize=auto;orthogonalLoop=1;fontSize=11;endArrow=block;endFill=0;endSize=8;strokeWidth=1;shadow=0;labelBackgroundColor=none;edgeStyle=orthogonalEdgeStyle;" parent="WIyWlLk6GJQsqaUBKTNV-1" source="WIyWlLk6GJQsqaUBKTNV-3" target="WIyWlLk6GJQsqaUBKTNV-6" edge="1">
          <mxGeometry relative="1" as="geometry" />
        </mxCell>
        <mxCell id="e3mAM8b_TcwhGjWmFP4o-0" style="edgeStyle=orthogonalEdgeStyle;rounded=0;orthogonalLoop=1;jettySize=auto;html=1;entryX=0.5;entryY=0;entryDx=0;entryDy=0;" edge="1" parent="WIyWlLk6GJQsqaUBKTNV-1" source="WIyWlLk6GJQsqaUBKTNV-3" target="WIyWlLk6GJQsqaUBKTNV-10">
          <mxGeometry relative="1" as="geometry">
            <mxPoint x="230" y="240" as="targetPoint" />
          </mxGeometry>
        </mxCell>
        <mxCell id="WIyWlLk6GJQsqaUBKTNV-3" value="make coffee yum yum" style="rounded=1;whiteSpace=wrap;html=1;fontSize=12;glass=0;strokeWidth=1;shadow=0;" parent="WIyWlLk6GJQsqaUBKTNV-1" vertex="1">
          <mxGeometry x="320" y="90" width="120" height="40" as="geometry" />
        </mxCell>
        <mxCell id="WIyWlLk6GJQsqaUBKTNV-5" value="No" style="edgeStyle=orthogonalEdgeStyle;rounded=0;html=1;jettySize=auto;orthogonalLoop=1;fontSize=11;endArrow=block;endFill=0;endSize=8;strokeWidth=1;shadow=0;labelBackgroundColor=none;fillColor=#f8cecc;strokeColor=#b85450;" parent="WIyWlLk6GJQsqaUBKTNV-1" source="WIyWlLk6GJQsqaUBKTNV-6" target="WIyWlLk6GJQsqaUBKTNV-7" edge="1">
          <mxGeometry y="10" relative="1" as="geometry">
            <mxPoint as="offset" />
          </mxGeometry>
        </mxCell>
        <mxCell id="WIyWlLk6GJQsqaUBKTNV-6" value="is there coffee ?" style="rhombus;whiteSpace=wrap;html=1;shadow=0;fontFamily=Helvetica;fontSize=12;align=center;strokeWidth=1;spacing=6;spacingTop=-4;" parent="WIyWlLk6GJQsqaUBKTNV-1" vertex="1">
          <mxGeometry x="510" y="180" width="100" height="80" as="geometry" />
        </mxCell>
        <mxCell id="e3mAM8b_TcwhGjWmFP4o-15" style="edgeStyle=orthogonalEdgeStyle;rounded=0;orthogonalLoop=1;jettySize=auto;html=1;" edge="1" parent="WIyWlLk6GJQsqaUBKTNV-1" source="WIyWlLk6GJQsqaUBKTNV-7" target="e3mAM8b_TcwhGjWmFP4o-16">
          <mxGeometry relative="1" as="geometry">
            <mxPoint x="390" y="310.0000000000001" as="targetPoint" />
          </mxGeometry>
        </mxCell>
        <mxCell id="WIyWlLk6GJQsqaUBKTNV-7" value="add item to buy list" style="rounded=1;whiteSpace=wrap;html=1;fontSize=12;glass=0;strokeWidth=1;shadow=0;" parent="WIyWlLk6GJQsqaUBKTNV-1" vertex="1">
          <mxGeometry x="330" y="210" width="120" height="40" as="geometry" />
        </mxCell>
        <mxCell id="e3mAM8b_TcwhGjWmFP4o-11" style="edgeStyle=orthogonalEdgeStyle;rounded=0;orthogonalLoop=1;jettySize=auto;html=1;entryX=0;entryY=0.5;entryDx=0;entryDy=0;fillColor=#d5e8d4;strokeColor=#82b366;" edge="1" parent="WIyWlLk6GJQsqaUBKTNV-1" source="WIyWlLk6GJQsqaUBKTNV-10">
          <mxGeometry relative="1" as="geometry">
            <mxPoint x="320" y="440.0000000000001" as="targetPoint" />
            <Array as="points">
              <mxPoint x="200" y="290" />
              <mxPoint x="210" y="290" />
              <mxPoint x="210" y="340" />
              <mxPoint x="320" y="340" />
            </Array>
          </mxGeometry>
        </mxCell>
        <mxCell id="e3mAM8b_TcwhGjWmFP4o-14" value="yes&lt;div&gt;&lt;br&gt;&lt;/div&gt;" style="edgeLabel;html=1;align=center;verticalAlign=middle;resizable=0;points=[];" vertex="1" connectable="0" parent="e3mAM8b_TcwhGjWmFP4o-11">
          <mxGeometry x="0.2601" relative="1" as="geometry">
            <mxPoint as="offset" />
          </mxGeometry>
        </mxCell>
        <mxCell id="WIyWlLk6GJQsqaUBKTNV-10" value="is there milk?" style="rhombus;whiteSpace=wrap;html=1;shadow=0;fontFamily=Helvetica;fontSize=12;align=center;strokeWidth=1;spacing=6;spacingTop=-4;" parent="WIyWlLk6GJQsqaUBKTNV-1" vertex="1">
          <mxGeometry x="150" y="180" width="100" height="80" as="geometry" />
        </mxCell>
        <mxCell id="e3mAM8b_TcwhGjWmFP4o-1" value="no" style="edgeStyle=orthogonalEdgeStyle;rounded=0;orthogonalLoop=1;jettySize=auto;html=1;fillColor=#f8cecc;strokeColor=#b85450;" edge="1" parent="WIyWlLk6GJQsqaUBKTNV-1" source="WIyWlLk6GJQsqaUBKTNV-10" target="WIyWlLk6GJQsqaUBKTNV-7">
          <mxGeometry relative="1" as="geometry" />
        </mxCell>
        <mxCell id="e3mAM8b_TcwhGjWmFP4o-12" style="edgeStyle=orthogonalEdgeStyle;rounded=0;orthogonalLoop=1;jettySize=auto;html=1;entryX=1.012;entryY=0.584;entryDx=0;entryDy=0;entryPerimeter=0;fillColor=#d5e8d4;strokeColor=#82b366;" edge="1" parent="WIyWlLk6GJQsqaUBKTNV-1" source="WIyWlLk6GJQsqaUBKTNV-6">
          <mxGeometry relative="1" as="geometry">
            <mxPoint x="441.44000000000005" y="445.0400000000001" as="targetPoint" />
            <Array as="points">
              <mxPoint x="560" y="345" />
            </Array>
          </mxGeometry>
        </mxCell>
        <mxCell id="e3mAM8b_TcwhGjWmFP4o-13" value="yes" style="edgeLabel;html=1;align=center;verticalAlign=middle;resizable=0;points=[];" vertex="1" connectable="0" parent="e3mAM8b_TcwhGjWmFP4o-12">
          <mxGeometry x="-0.385" relative="1" as="geometry">
            <mxPoint as="offset" />
          </mxGeometry>
        </mxCell>
        <mxCell id="e3mAM8b_TcwhGjWmFP4o-17" style="edgeStyle=orthogonalEdgeStyle;rounded=0;orthogonalLoop=1;jettySize=auto;html=1;entryX=0.5;entryY=0;entryDx=0;entryDy=0;" edge="1" parent="WIyWlLk6GJQsqaUBKTNV-1" source="e3mAM8b_TcwhGjWmFP4o-16">
          <mxGeometry relative="1" as="geometry">
            <mxPoint x="380" y="410.0000000000001" as="targetPoint" />
          </mxGeometry>
        </mxCell>
        <mxCell id="e3mAM8b_TcwhGjWmFP4o-16" value="buy items at store" style="rounded=1;whiteSpace=wrap;html=1;fillColor=#dae8fc;strokeColor=#6c8ebf;" vertex="1" parent="WIyWlLk6GJQsqaUBKTNV-1">
          <mxGeometry x="355" y="270" width="70" height="30" as="geometry" />
        </mxCell>
        <mxCell id="e3mAM8b_TcwhGjWmFP4o-19" style="edgeStyle=orthogonalEdgeStyle;rounded=0;orthogonalLoop=1;jettySize=auto;html=1;fillColor=#d5e8d4;strokeColor=#82b366;" edge="1" parent="WIyWlLk6GJQsqaUBKTNV-1" source="e3mAM8b_TcwhGjWmFP4o-18" target="e3mAM8b_TcwhGjWmFP4o-20">
          <mxGeometry relative="1" as="geometry">
            <mxPoint x="380" y="560" as="targetPoint" />
          </mxGeometry>
        </mxCell>
        <mxCell id="e3mAM8b_TcwhGjWmFP4o-21" value="yes" style="edgeLabel;html=1;align=center;verticalAlign=middle;resizable=0;points=[];" vertex="1" connectable="0" parent="e3mAM8b_TcwhGjWmFP4o-19">
          <mxGeometry x="-0.3572" y="1" relative="1" as="geometry">
            <mxPoint as="offset" />
          </mxGeometry>
        </mxCell>
        <mxCell id="e3mAM8b_TcwhGjWmFP4o-22" style="edgeStyle=orthogonalEdgeStyle;rounded=0;orthogonalLoop=1;jettySize=auto;html=1;entryX=1;entryY=0.5;entryDx=0;entryDy=0;fillColor=#f8cecc;strokeColor=#b85450;" edge="1" parent="WIyWlLk6GJQsqaUBKTNV-1" source="e3mAM8b_TcwhGjWmFP4o-18" target="WIyWlLk6GJQsqaUBKTNV-6">
          <mxGeometry relative="1" as="geometry" />
        </mxCell>
        <mxCell id="e3mAM8b_TcwhGjWmFP4o-25" value="no" style="edgeLabel;html=1;align=center;verticalAlign=middle;resizable=0;points=[];" vertex="1" connectable="0" parent="e3mAM8b_TcwhGjWmFP4o-22">
          <mxGeometry x="-0.7481" y="-2" relative="1" as="geometry">
            <mxPoint as="offset" />
          </mxGeometry>
        </mxCell>
        <mxCell id="e3mAM8b_TcwhGjWmFP4o-23" style="edgeStyle=orthogonalEdgeStyle;rounded=0;orthogonalLoop=1;jettySize=auto;html=1;entryX=0;entryY=0.5;entryDx=0;entryDy=0;fillColor=#f8cecc;strokeColor=#b85450;" edge="1" parent="WIyWlLk6GJQsqaUBKTNV-1" source="e3mAM8b_TcwhGjWmFP4o-18" target="WIyWlLk6GJQsqaUBKTNV-10">
          <mxGeometry relative="1" as="geometry" />
        </mxCell>
        <mxCell id="e3mAM8b_TcwhGjWmFP4o-24" value="no" style="edgeLabel;html=1;align=center;verticalAlign=middle;resizable=0;points=[];" vertex="1" connectable="0" parent="e3mAM8b_TcwhGjWmFP4o-23">
          <mxGeometry x="-0.6809" y="2" relative="1" as="geometry">
            <mxPoint as="offset" />
          </mxGeometry>
        </mxCell>
        <mxCell id="e3mAM8b_TcwhGjWmFP4o-18" value="do i have all items?" style="rhombus;whiteSpace=wrap;html=1;" vertex="1" parent="WIyWlLk6GJQsqaUBKTNV-1">
          <mxGeometry x="320" y="400" width="120" height="80" as="geometry" />
        </mxCell>
        <mxCell id="e3mAM8b_TcwhGjWmFP4o-40" style="edgeStyle=orthogonalEdgeStyle;rounded=0;orthogonalLoop=1;jettySize=auto;html=1;entryX=1;entryY=0.5;entryDx=0;entryDy=0;" edge="1" parent="WIyWlLk6GJQsqaUBKTNV-1" source="e3mAM8b_TcwhGjWmFP4o-20" target="e3mAM8b_TcwhGjWmFP4o-37">
          <mxGeometry relative="1" as="geometry">
            <Array as="points">
              <mxPoint x="240" y="660" />
              <mxPoint x="240" y="580" />
              <mxPoint x="160" y="580" />
            </Array>
          </mxGeometry>
        </mxCell>
        <mxCell id="e3mAM8b_TcwhGjWmFP4o-20" value="take water" style="rounded=1;whiteSpace=wrap;html=1;" vertex="1" parent="WIyWlLk6GJQsqaUBKTNV-1">
          <mxGeometry x="320" y="630" width="120" height="60" as="geometry" />
        </mxCell>
        <mxCell id="e3mAM8b_TcwhGjWmFP4o-29" style="edgeStyle=orthogonalEdgeStyle;rounded=0;orthogonalLoop=1;jettySize=auto;html=1;" edge="1" parent="WIyWlLk6GJQsqaUBKTNV-1" source="e3mAM8b_TcwhGjWmFP4o-27" target="e3mAM8b_TcwhGjWmFP4o-30">
          <mxGeometry relative="1" as="geometry">
            <mxPoint x="530" y="750" as="targetPoint" />
          </mxGeometry>
        </mxCell>
        <mxCell id="e3mAM8b_TcwhGjWmFP4o-27" value="add coffee to glass" style="rounded=1;whiteSpace=wrap;html=1;" vertex="1" parent="WIyWlLk6GJQsqaUBKTNV-1">
          <mxGeometry x="310" y="790" width="120" height="60" as="geometry" />
        </mxCell>
        <mxCell id="e3mAM8b_TcwhGjWmFP4o-36" style="edgeStyle=orthogonalEdgeStyle;rounded=0;orthogonalLoop=1;jettySize=auto;html=1;entryX=0;entryY=0.5;entryDx=0;entryDy=0;" edge="1" parent="WIyWlLk6GJQsqaUBKTNV-1" source="e3mAM8b_TcwhGjWmFP4o-28" target="e3mAM8b_TcwhGjWmFP4o-27">
          <mxGeometry relative="1" as="geometry" />
        </mxCell>
        <mxCell id="e3mAM8b_TcwhGjWmFP4o-28" value="take glass" style="rounded=1;whiteSpace=wrap;html=1;" vertex="1" parent="WIyWlLk6GJQsqaUBKTNV-1">
          <mxGeometry x="30" y="700" width="120" height="60" as="geometry" />
        </mxCell>
        <mxCell id="e3mAM8b_TcwhGjWmFP4o-31" style="edgeStyle=orthogonalEdgeStyle;rounded=0;orthogonalLoop=1;jettySize=auto;html=1;" edge="1" parent="WIyWlLk6GJQsqaUBKTNV-1" source="e3mAM8b_TcwhGjWmFP4o-30" target="e3mAM8b_TcwhGjWmFP4o-32">
          <mxGeometry relative="1" as="geometry">
            <mxPoint x="530" y="660" as="targetPoint" />
          </mxGeometry>
        </mxCell>
        <mxCell id="e3mAM8b_TcwhGjWmFP4o-30" value="pour hot water in the glass" style="rounded=1;whiteSpace=wrap;html=1;" vertex="1" parent="WIyWlLk6GJQsqaUBKTNV-1">
          <mxGeometry x="470" y="780" width="120" height="60" as="geometry" />
        </mxCell>
        <mxCell id="e3mAM8b_TcwhGjWmFP4o-33" style="edgeStyle=orthogonalEdgeStyle;rounded=0;orthogonalLoop=1;jettySize=auto;html=1;" edge="1" parent="WIyWlLk6GJQsqaUBKTNV-1" source="e3mAM8b_TcwhGjWmFP4o-32" target="e3mAM8b_TcwhGjWmFP4o-34">
          <mxGeometry relative="1" as="geometry">
            <mxPoint x="660" y="660" as="targetPoint" />
          </mxGeometry>
        </mxCell>
        <mxCell id="e3mAM8b_TcwhGjWmFP4o-32" value="add milk" style="rounded=1;whiteSpace=wrap;html=1;" vertex="1" parent="WIyWlLk6GJQsqaUBKTNV-1">
          <mxGeometry x="470" y="680" width="120" height="60" as="geometry" />
        </mxCell>
        <mxCell id="e3mAM8b_TcwhGjWmFP4o-34" value="enjoy" style="rounded=1;whiteSpace=wrap;html=1;" vertex="1" parent="WIyWlLk6GJQsqaUBKTNV-1">
          <mxGeometry x="620" y="690" width="120" height="60" as="geometry" />
        </mxCell>
        <mxCell id="e3mAM8b_TcwhGjWmFP4o-39" style="edgeStyle=orthogonalEdgeStyle;rounded=0;orthogonalLoop=1;jettySize=auto;html=1;entryX=0.5;entryY=0;entryDx=0;entryDy=0;" edge="1" parent="WIyWlLk6GJQsqaUBKTNV-1" source="e3mAM8b_TcwhGjWmFP4o-37" target="e3mAM8b_TcwhGjWmFP4o-28">
          <mxGeometry relative="1" as="geometry" />
        </mxCell>
        <mxCell id="e3mAM8b_TcwhGjWmFP4o-43" value="yes" style="edgeLabel;html=1;align=center;verticalAlign=middle;resizable=0;points=[];" vertex="1" connectable="0" parent="e3mAM8b_TcwhGjWmFP4o-39">
          <mxGeometry x="-0.3857" y="-3" relative="1" as="geometry">
            <mxPoint as="offset" />
          </mxGeometry>
        </mxCell>
        <mxCell id="e3mAM8b_TcwhGjWmFP4o-41" style="edgeStyle=orthogonalEdgeStyle;rounded=0;orthogonalLoop=1;jettySize=auto;html=1;entryX=0.5;entryY=0;entryDx=0;entryDy=0;" edge="1" parent="WIyWlLk6GJQsqaUBKTNV-1">
          <mxGeometry relative="1" as="geometry">
            <mxPoint x="130" y="540" as="sourcePoint" />
            <mxPoint x="380" y="605" as="targetPoint" />
            <Array as="points">
              <mxPoint x="380" y="540" />
            </Array>
          </mxGeometry>
        </mxCell>
        <mxCell id="e3mAM8b_TcwhGjWmFP4o-42" value="no" style="edgeLabel;html=1;align=center;verticalAlign=middle;resizable=0;points=[];" vertex="1" connectable="0" parent="e3mAM8b_TcwhGjWmFP4o-41">
          <mxGeometry x="-0.3778" relative="1" as="geometry">
            <mxPoint as="offset" />
          </mxGeometry>
        </mxCell>
        <mxCell id="e3mAM8b_TcwhGjWmFP4o-37" value="is water hot?" style="rhombus;whiteSpace=wrap;html=1;" vertex="1" parent="WIyWlLk6GJQsqaUBKTNV-1">
          <mxGeometry x="80" y="510" width="80" height="80" as="geometry" />
        </mxCell>
      </root>
    </mxGraphModel>
  </diagram>
</mxfile>
